<svg xmlns="http://www.w3.org/2000/svg" width="512" height="512" viewBox="0 0 512 512">
  <defs>
    <mask id="iconMask">
      <rect x="0" y="0" width="512" height="512" fill="white"/>
      <g fill="black">
        <rect x="191" y="134" width="23" height="39" transform="rotate(-30 200 135)"/>
        <rect x="180" y="360" width="40" height="30" transform="rotate(30 200 375)"/>
        <rect x="260" y="125" width="40" height="30"/>
        <rect x="360" y="125" width="40" height="30"/>
        <rect x="260" y="355" width="40" height="30"/>
        <rect x="360" y="355" width="40" height="30"/>
        <rect x="420" y="180" width="30" height="40"/>
        <rect x="420" y="290" width="30" height="40"/>
      </g>
    </mask>
  </defs>
  <path fill="red" mask="url(#iconMask)" d="M423.63 195.56l48.94 0.04 -0.56 133.93 -48.01 -0.43 -0.37 -133.54zm-36.45 133.86l-189.68 -2.35 -117.13 -72.96 109.13 -58.73 197.67 -0.54 0.01 134.58zm-364.79 -74.92c22.38,13.96 20.04,12.16 159.2,99.75 327.54,3.15 217.89,3.07 327.54,3.15l-0.65 -188.97c-327.33,-0.78 -4,0.73 -331.34,-0.05 -154.75,86.12 -19.4,12.71 -154.75,86.12 -0.45,24.19 0.44,-24.2 0,0z"/>
</svg>